HIERARCHY
ROOT hip
{
	OFFSET 0.000000 0.000000 0.000000 
	CHANNELS 6 Xposition Yposition Zposition Xrotation Zrotation Yrotation
	JOINT abdomen
	{
		OFFSET 0.000000 3.402643 0.000000 
		CHANNELS 3 Xrotation Zrotation Yrotation
		JOINT chest
		{
			OFFSET 0.000000 8.438565 -0.680529 
			CHANNELS 3 Xrotation Zrotation Yrotation
			JOINT neck
			{
				OFFSET 0.000000 10.207942 -0.272212 
				CHANNELS 3 Xrotation Zrotation Yrotation
				JOINT head
				{
					OFFSET 0.000000 3.130431 0.000000 
					CHANNELS 3 Xrotation Zrotation Yrotation
					End Site
					{
						OFFSET 0.000000 3.130435 0.000000 
					}
				}
			}
			JOINT lCollar
			{
				OFFSET 3.470700 6.669187 -0.816635 
				CHANNELS 3 Yrotation Zrotation Xrotation
				JOINT lShldr
				{
					OFFSET 3.198488 0.000000 0.000000 
					CHANNELS 3 Zrotation Yrotation Xrotation
					JOINT lForeArm
					{
						OFFSET 10.139888 0.000000 0.000000 
						CHANNELS 3 Yrotation Zrotation Xrotation
						JOINT lHand
						{
							OFFSET 8.370511 0.000000 0.000000 
							CHANNELS 3 Zrotation Yrotation Xrotation
							End Site
							{
								OFFSET 4.083176 0.000000 0.000000 
							}
						}
					}
				}
			}
			JOINT rCollar
			{
				OFFSET -3.470700 6.669187 -0.816635 
				CHANNELS 3 Yrotation Zrotation Xrotation
				JOINT rShldr
				{
					OFFSET -3.198488 0.000000 0.000000 
					CHANNELS 3 Zrotation Yrotation Xrotation
					JOINT rForeArm
					{
						OFFSET -10.139888 0.000000 0.000000 
						CHANNELS 3 Yrotation Zrotation Xrotation
						JOINT rHand
						{
							OFFSET -8.370511 0.000000 0.000000 
							CHANNELS 3 Zrotation Yrotation Xrotation
							End Site
							{
								OFFSET -4.083176 0.000000 0.000000 
							}
						}
					}
				}
			}
		}
	}
	JOINT lThigh
	{
		OFFSET 5.308129 -1.633274 1.361059 
		CHANNELS 3 Xrotation Zrotation Yrotation
		JOINT lShin
		{
			OFFSET -2.041588 -20.007561 0.000000 
			CHANNELS 3 Xrotation Zrotation Yrotation
			JOINT lFoot
			{
				OFFSET 0.000000 -19.190928 -1.224953 
				CHANNELS 3 Xrotation Yrotation Zrotation
				End Site
				{
					OFFSET 0.000000 -2.449906 4.627600 
				}
			}
		}
	}
	JOINT rThigh
	{
		OFFSET -5.308129 -1.633274 1.361059 
		CHANNELS 3 Xrotation Zrotation Yrotation
		JOINT rShin
		{
			OFFSET 2.041588 -20.007561 0.000000 
			CHANNELS 3 Xrotation Zrotation Yrotation
			JOINT rFoot
			{
				OFFSET 0.000000 -19.190928 -1.224953 
				CHANNELS 3 Xrotation Yrotation Zrotation
				End Site
				{
					OFFSET 0.000000 -2.449906 4.627600 
				}
			}
		}
	}
}
MOTION
Frames: 8
Frame Time: 0.033333
1.520083 37.109894 -16.041269 17.080585 -4.696441 -1.373551 0.000000 0.000000 0.000000 -1.158015 5.672676 7.766940 -0.792146 -3.207588 -0.246014 -41.171261 1.930834 -2.778895 -21.058840 14.315042 25.000000 -87.319229 -12.170944 -3.007611 -32.938904 1.741898 54.230282 -9.788274 -7.494229 -57.759769 9.597172 -23.339622 25.000000 72.969879 17.002789 70.788948 34.287834 -29.242399 6.464258 31.783653 -8.737745 -80.083214 -42.984318 10.046623 15.148757 84.130508 14.961857 0.119795 -42.845711 1.120641 4.352478 -40.734680 1.102636 3.193507 77.103531 -2.995397 5.481698 -36.157364 -8.866427 7.202440 
1.596197 38.794060 -15.638211 17.328123 -4.792805 -1.191047 0.000000 0.000000 0.000000 -2.709590 5.882134 7.837806 -0.312858 -3.045751 -0.234652 -40.318615 1.881022 -3.064534 -21.260653 14.475206 25.000000 -88.000191 -11.022083 -2.677414 -33.416134 0.710483 55.618614 -10.572619 -7.765967 -57.461372 8.559285 -23.374273 25.000000 73.318550 16.506950 71.101357 35.782131 -28.182182 8.839460 32.100475 -8.204492 -80.064400 -38.156685 9.136509 15.867802 76.486107 15.156795 0.290307 -38.428913 0.401887 2.286677 -36.015926 0.936709 2.897197 69.252831 -3.374491 4.731565 -30.249054 -7.556884 9.085025 
1.720142 41.189743 -15.131647 17.757923 -4.734971 -0.958154 0.000000 0.000000 0.000000 -5.048183 6.099475 7.920229 1.124663 -3.033530 -0.233244 -38.851074 2.114182 -3.366122 -21.257944 13.985765 25.000000 -87.957939 -9.250008 -2.714453 -34.873238 -0.450218 57.979439 -11.186520 -8.322382 -57.165314 7.403034 -22.859663 25.000000 73.035492 15.525272 71.157906 37.360073 -27.592499 12.336129 33.086170 -7.357140 -80.103996 -32.164677 7.781149 16.574991 65.081650 15.315007 0.608640 -28.074749 -3.117120 3.776276 -30.210691 0.351124 2.423648 58.442570 -3.568844 3.679230 -18.880877 -4.100587 10.402958 
1.865726 44.773533 -14.697269 19.578451 -4.638589 -1.276544 0.000000 0.000000 0.000000 -8.867495 6.581253 8.047894 3.189499 -3.482877 -0.270793 -36.811394 2.874787 -3.498691 -20.859102 12.243480 25.000000 -86.238144 -6.200595 -3.650032 -37.757362 -2.456977 59.473709 -10.974336 -8.850287 -57.124298 6.813699 -21.335913 25.000000 71.646645 14.185472 70.627480 38.761002 -27.954370 15.518396 34.137093 -6.197742 -80.175819 -26.176704 6.803510 17.216154 47.241844 14.011461 1.077651 -9.137845 -11.396804 8.902697 -25.721693 -0.429666 1.961897 43.641273 -3.014491 2.358197 -2.449061 2.077799 5.764998 
1.916215 47.208820 -14.606829 21.225386 -4.644142 -1.918743 0.000000 0.000000 0.000000 -11.119457 7.015592 8.137303 4.120987 -3.920046 -0.310873 -35.859692 3.384099 -3.462105 -20.576082 10.584592 25.000000 -84.057938 -4.175111 -4.854532 -39.700172 -4.276856 58.615482 -10.296430 -9.004409 -57.319134 7.053349 -19.769798 25.000000 70.019478 13.631528 69.782776 39.110481 -28.703068 16.373528 34.333340 -5.130241 -80.185318 -23.773785 7.164063 17.665398 35.893456 11.787427 1.185583 1.201429 -16.427559 10.142090 -25.082542 -0.654070 1.878731 34.967167 -2.124542 1.692894 4.464776 3.662075 2.287863 
1.908215 49.113125 -14.595103 22.172775 -4.831104 -2.513048 0.000000 0.000000 0.000000 -12.173237 7.400089 8.223637 4.533102 -4.098511 -0.325228 -35.509125 3.587244 -3.490741 -20.574703 9.485596 25.000000 -82.240784 -3.185493 -5.876537 -40.844227 -5.622787 57.858101 -9.858910 -8.876149 -57.486607 7.248351 -18.454962 25.000000 68.661247 13.483980 69.011711 38.967457 -29.520832 16.603090 34.277962 -4.007891 -80.177910 -22.321699 8.162024 18.174019 29.100687 9.478227 1.061796 3.353939 -18.402346 8.494191 -25.072939 -0.449438 1.934023 29.459442 -1.358603 1.346336 5.290319 0.812573 4.945854 
1.854961 50.739658 -14.585539 22.031603 -5.270990 -2.745112 0.000000 0.000000 0.000000 -11.856904 7.714759 8.297924 4.473713 -3.982011 -0.311904 -35.607391 3.426750 -3.708649 -21.083080 9.754220 25.000000 -81.810471 -3.838891 -6.088123 -41.238071 -5.483412 58.891884 -10.378005 -8.333656 -57.438168 6.929359 -18.221649 25.000000 68.395592 13.741370 68.794708 38.394337 -30.441910 16.204029 33.978649 -3.416620 -80.182060 -21.157846 9.429540 18.749777 26.832769 7.796268 0.806348 -2.001737 -16.580591 5.828391 -24.768433 0.087788 2.084824 26.673319 -1.108746 1.139021 3.170675 -4.743248 12.618666 
1.847160 51.410465 -14.573990 21.173435 -5.420705 -2.516293 0.000000 0.000000 0.000000 -10.762141 7.695938 8.307582 4.179710 -3.918295 -0.305885 -35.905777 3.157877 -3.978148 -21.675091 10.638867 25.000000 -82.535995 -5.165354 -5.656225 -41.008991 -4.393078 60.151051 -11.420405 -8.166918 -57.216282 6.584481 -18.961288 25.000000 68.887817 14.130728 69.009216 38.056919 -30.745001 15.463859 33.692661 -3.704279 -80.207077 -20.589424 9.710495 18.916048 27.703957 7.681727 0.719543 -5.298571 -13.226362 4.021966 -24.250399 0.194908 2.098327 26.442823 -1.255366 1.090900 3.068580 -6.211935 14.818954 
